<svg width="2570" height="2570" viewBox="0 0 2570 2570" xmlns="http://www.w3.org/2000/svg" xmlns:xlink="http://www.w3.org/1999/xlink"><svg width="514" height="514" viewBox="-1 -1 512 512" x="514" xmlns="http://www.w3.org/2000/svg"><path d="M255 0C114.75 0 0 114.75 0 255s114.75 255 255 255 255-114.75 255-255S395.25 0 255 0zm127.5 280.5h-102v102h-51v-102h-102v-51h102v-102h51v102h102v51z" fill="#d4b63d"/></svg><svg width="514" height="514" viewBox="-1 -1 359 359" y="1542" xmlns="http://www.w3.org/2000/svg"><path d="M357 204H204v153h-51V204H0v-51h153V0h51v153h153v51z" fill="#d4b63d"/></svg><svg width="514" height="514" viewBox="-1 -1 512 512" y="514" xmlns="http://www.w3.org/2000/svg"><path d="M459 0H51C22.95 0 0 22.95 0 51v459l102-102h357c28.05 0 51-22.95 51-51V51c0-28.05-22.95-51-51-51z" fill="#245fa6"/></svg><svg width="514" height="514" viewBox="-1 -1 512 512" x="514" y="514" xmlns="http://www.w3.org/2000/svg"><path d="M484.5 102h-51v229.5H102v51c0 15.3 10.2 25.5 25.5 25.5H408l102 102V127.5c0-15.3-10.2-25.5-25.5-25.5zm-102 153V25.5C382.5 10.2 372.3 0 357 0H25.5C10.2 0 0 10.2 0 25.5v357l102-102h255c15.3 0 25.5-10.2 25.5-25.5z" fill="#245fa6"/></svg><svg width="514" height="514" viewBox="-1 -1 461 461" x="1028" xmlns="http://www.w3.org/2000/svg"><path d="M124.95 181.05l-35.7 35.7L204 331.5l255-255-35.7-35.7L204 260.1l-79.05-79.05zM408 408H51V51h255V0H51C22.95 0 0 22.95 0 51v357c0 28.05 22.95 51 51 51h357c28.05 0 51-22.95 51-51V204h-51v204z" fill="#d4b63d"/></svg><svg width="514" height="514" viewBox="-1 -1 512 512" x="1028" y="514" xmlns="http://www.w3.org/2000/svg"><path d="M255 0C114.75 0 0 114.75 0 255s114.75 255 255 255 255-114.75 255-255S395.25 0 255 0zm175.95 153H357c-7.65-33.15-20.4-61.2-35.7-91.8 45.9 17.85 86.7 48.45 109.65 91.8zM255 51c20.4 30.6 38.25 63.75 48.45 102h-96.9c10.2-35.7 28.05-71.4 48.45-102zM58.65 306c-5.1-15.3-7.65-33.15-7.65-51s2.55-35.7 7.65-51h86.7c-2.55 17.85-2.55 33.15-2.55 51s2.55 33.15 2.55 51h-86.7zm20.4 51H153c7.65 33.15 20.4 61.2 35.7 91.8-45.9-17.85-86.7-48.45-109.65-91.8zM153 153H79.05c25.5-43.35 63.75-73.95 109.65-91.8-15.3 30.6-28.05 58.65-35.7 91.8zm102 306c-20.4-30.6-38.25-63.75-48.45-102h96.9c-10.2 35.7-28.05 71.4-48.45 102zm58.65-153h-117.3c-2.55-17.85-5.1-33.15-5.1-51s2.55-33.15 5.1-51H316.2c2.55 17.85 5.1 33.15 5.1 51s-5.1 33.15-7.65 51zm7.65 142.8c15.3-28.05 28.05-58.649 35.7-91.8h73.95C408 400.35 367.2 430.95 321.3 448.8zM367.2 306c2.55-17.85 2.55-33.15 2.55-51s-2.55-33.15-2.55-51h86.7c5.1 15.3 7.649 33.15 7.649 51s-2.55 35.7-7.649 51h-86.7z" fill="#d4b63d"/></svg><svg width="514" height="514" viewBox="-1 -1 512 512" y="1028" xmlns="http://www.w3.org/2000/svg"><path d="M204 51H51C22.95 51 0 73.95 0 102v306c0 28.05 22.95 51 51 51h408c28.05 0 51-22.95 51-51V153c0-28.05-22.95-51-51-51H255l-51-51z" fill="#245fa6"/></svg><svg width="514" height="514" viewBox="-1 -1 461 461" x="514" y="1028" xmlns="http://www.w3.org/2000/svg"><path d="M459 216.75L280.5 38.25v102c-178.5 25.5-255 153-280.5 280.5C63.75 331.5 153 290.7 280.5 290.7v104.55L459 216.75z" fill="#d4b63d"/></svg><svg width="514" height="514" viewBox="-1 -1 512 512" x="1028" y="1028" xmlns="http://www.w3.org/2000/svg"><path d="M459 51H51C22.95 51 0 73.95 0 102v306c0 28.05 22.95 51 51 51h408c28.05 0 51-22.95 51-51V102c0-28.05-22.95-51-51-51zm0 357h-51V183.6l-153 96.9-153-96.9V408H51V102h30.6L255 209.1 428.4 102H459v306z" fill="#D80027"/></svg><svg width="514" height="514" viewBox="-1 -1 512 512" x="1542" xmlns="http://www.w3.org/2000/svg"><path d="M234.6 175.95c0-25.5-15.3-76.5-53.55-76.5-15.3 0-33.15 10.2-33.15 43.35 0 30.6 15.3 73.95 51 73.95 0 0 35.7-2.55 35.7-40.8zM219.3 300.9h-7.65c-7.65 0-30.6 2.55-45.9 7.649C147.9 313.65 127.5 326.4 127.5 351.9c0 28.05 25.5 56.1 76.5 56.1 38.25 0 61.2-25.5 61.2-51 0-17.85-12.75-30.6-45.9-56.1zM459 0H51C22.95 0 0 22.95 0 51v408c0 28.05 22.95 51 51 51h408c28.05 0 51-22.95 51-51V51c0-28.05-22.95-51-51-51zM181.05 438.6c-71.4 0-104.55-40.8-104.55-76.5 0-12.75 2.55-40.8 38.25-61.199 20.4-12.75 45.9-20.4 79.05-22.95-5.1-5.101-7.65-12.75-7.65-25.5 0-5.1 0-7.65 2.55-12.75h-10.2c-51 0-81.6-38.25-81.6-76.5 0-43.35 33.15-91.8 104.55-91.8h107.1l-7.649 7.65L283.05 96.9l-2.55 2.55h-17.85c10.199 10.2 22.949 28.05 22.949 56.1 0 35.7-17.85 53.55-40.8 68.85-5.1 2.55-10.2 10.2-10.2 17.85s5.1 12.75 10.2 15.3c2.55 2.55 7.65 5.101 12.75 7.65 20.4 15.3 48.45 33.149 48.45 73.95.001 45.9-33.149 99.45-124.949 99.45zM433.5 255h-51v51H357v-51h-51v-25.5h51v-51h25.5v51h51V255z" fill="#D80027"/></svg><svg width="514" height="514" viewBox="-1 -1 512 512" x="1542" y="514" xmlns="http://www.w3.org/2000/svg"><path d="M255 0C114.75 0 0 114.75 0 255s114.75 255 255 255 255-114.75 255-255S395.25 0 255 0zm25.5 433.5h-51v-51h51v51zm53.55-196.35L311.1 260.1c-20.399 17.851-30.6 33.15-30.6 71.4h-51v-12.75c0-28.05 10.2-53.55 30.6-71.4l30.6-33.15c10.2-7.65 15.3-20.4 15.3-35.7 0-28.05-22.95-51-51-51s-51 22.95-51 51h-51c0-56.1 45.9-102 102-102s102 45.9 102 102c0 22.95-10.2 43.35-22.95 58.65z" fill="#245fa6"/></svg><svg width="514" height="514" viewBox="-1 -1 512 512" x="1542" y="1028" xmlns="http://www.w3.org/2000/svg"><path fill="#245fa6" d="M204 471.75v-153h102v153h127.5v-204H510L255 38.25 0 267.75h76.5v204z"/></svg><svg width="514" height="514" viewBox="-1 -1 512 512" xmlns="http://www.w3.org/2000/svg"><path d="M459 0H51C22.95 0 0 22.95 0 51v408c0 28.05 22.95 51 51 51h408c28.05 0 51-22.95 51-51V51c0-28.05-22.95-51-51-51zM153 433.5H76.5V204H153v229.5zm-38.25-272.85c-25.5 0-45.9-20.4-45.9-45.9s20.4-45.9 45.9-45.9 45.9 20.4 45.9 45.9-20.4 45.9-45.9 45.9zM433.5 433.5H357V298.35c0-20.399-17.85-38.25-38.25-38.25s-38.25 17.851-38.25 38.25V433.5H204V204h76.5v30.6c12.75-20.4 40.8-35.7 63.75-35.7 48.45 0 89.25 40.8 89.25 89.25V433.5z" fill="#245fa6"/></svg><svg width="514" height="514" viewBox="-1 -1 512 512" x="514" y="1542" xmlns="http://www.w3.org/2000/svg"><path fill="#d4b63d" d="M255 402.212l157.59 95.038-41.693-179.239L510 197.472l-183.37-15.734L255 12.75l-71.629 168.988L0 197.472l139.103 120.539L97.41 497.25z"/></svg><svg width="514" height="514" viewBox="-1 -1 512 512" x="1028" y="1542" xmlns="http://www.w3.org/2000/svg"><path d="M255 510c28.05 0 51-22.95 51-51H204c0 28.05 22.95 51 51 51zm165.75-153V216.75c0-79.05-53.55-142.8-127.5-160.65V38.25C293.25 17.85 275.4 0 255 0s-38.25 17.85-38.25 38.25V56.1c-73.95 17.85-127.5 81.6-127.5 160.65V357l-51 51v25.5h433.5V408l-51-51z" fill="#d4b63d"/></svg><svg width="514" height="514" viewBox="-1 -1 448.25 448.25" x="1542" y="1542" xmlns="http://www.w3.org/2000/svg"><path d="M318.75 280.5h-20.4l-7.649-7.65c25.5-28.05 40.8-66.3 40.8-107.1C331.5 73.95 257.55 0 165.75 0S0 73.95 0 165.75 73.95 331.5 165.75 331.5c40.8 0 79.05-15.3 107.1-40.8l7.65 7.649v20.4L408 446.25 446.25 408l-127.5-127.5zm-153 0C102 280.5 51 229.5 51 165.75S102 51 165.75 51 280.5 102 280.5 165.75s-51 114.75-114.75 114.75z" fill="#d4b63d"/></svg><svg width="514" height="514" viewBox="-1 -1 537.5 537.5" x="2056" xmlns="http://www.w3.org/2000/svg"><path fill="#d4b63d" d="M0 497.25l535.5-229.5L0 38.25v178.5l382.5 51-382.5 51z"/></svg><svg width="514" height="514" viewBox="-1 -1 509.45 509.45" x="2056" y="514" xmlns="http://www.w3.org/2000/svg"><path d="M440.813 280.5c0-7.65 2.55-15.3 2.55-25.5s0-17.85-2.55-25.5l53.55-43.35c5.1-5.1 5.1-10.2 2.55-15.3l-51-89.25c-2.55-2.55-7.649-5.1-15.3-2.55l-63.75 25.5c-12.75-10.2-28.05-17.85-43.35-25.5l-10.2-66.3C315.863 5.1 308.212 0 303.113 0h-102c-5.101 0-12.75 5.1-12.75 10.2l-10.2 68.85c-15.3 5.1-28.05 15.3-43.35 25.5l-61.2-25.5c-7.65-2.55-12.75 0-17.851 5.1l-51 89.25c-2.55 2.55 0 10.2 5.1 15.3l53.55 40.8c0 7.65-2.55 15.3-2.55 25.5s0 17.85 2.55 25.5l-53.55 43.35c-5.1 5.101-5.1 10.2-2.55 15.301l51 89.25c2.55 2.55 7.649 5.1 15.3 2.55l63.75-25.5c12.75 10.2 28.05 17.85 43.35 25.5l10.2 66.3c0 5.1 5.1 10.2 12.75 10.2h102c5.101 0 12.75-5.101 12.75-10.2l10.2-66.3c15.3-7.65 30.6-15.3 43.35-25.5l63.75 25.5c5.101 2.55 12.75 0 15.301-5.101l51-89.25c2.55-5.1 2.55-12.75-2.551-15.3l-58.649-40.8zm-188.7 63.75c-48.45 0-89.25-40.8-89.25-89.25s40.8-89.25 89.25-89.25 89.25 40.8 89.25 89.25-40.8 89.25-89.25 89.25z" fill="#4b8a1e"/></svg><svg width="514" height="514" viewBox="-1 -1 410 410" x="2056" y="1028" xmlns="http://www.w3.org/2000/svg"><path d="M0 102h102V0H0v102zm153 306h102V306H153v102zM0 408h102V306H0v102zm0-153h102V153H0v102zm153 0h102V153H153v102zM306 0v102h102V0H306zM153 102h102V0H153v102zm153 153h102V153H306v102zm0 153h102V306H306v102z" fill="#d4b63d"/></svg><svg width="514" height="514" viewBox="-1 -1 461 461" x="2056" y="1542" xmlns="http://www.w3.org/2000/svg"><path d="M0 382.5h153v-51H0v51zm0-306v51h459v-51H0zM0 255h306v-51H0v51z" fill="#245fa6"/></svg><svg width="514" height="514" viewBox="-1 -1 563 563" y="2056" xmlns="http://www.w3.org/2000/svg"><path d="M280.5 76.5V0l-102 102 102 102v-76.5c84.15 0 153 68.85 153 153 0 25.5-7.65 51-17.85 71.4l38.25 38.25c17.85-33.15 30.6-68.85 30.6-109.65 0-112.2-91.8-204-204-204zm0 357c-84.15 0-153-68.85-153-153 0-25.5 7.65-51 17.85-71.4l-38.25-38.25C89.25 204 76.5 239.7 76.5 280.5c0 112.2 91.8 204 204 204V561l102-102-102-102v76.5z" fill="#4b8a1e"/></svg><svg width="514" height="514" viewBox="-1 -1 537.5 537.5" x="514" y="2056" xmlns="http://www.w3.org/2000/svg"><path d="M142.8 53.55l-35.7-35.7C45.9 63.75 5.1 135.15 0 216.75h51c5.1-68.85 38.25-127.5 91.8-163.2zm341.7 163.2h51c-5.1-81.6-43.35-153-104.55-198.9l-35.7 35.7c51 35.7 84.15 94.35 89.25 163.2zm-51 12.75c0-79.05-53.55-142.8-127.5-160.65V51c0-20.4-17.85-38.25-38.25-38.25S229.5 30.6 229.5 51v17.85C155.55 86.7 102 150.45 102 229.5v140.25l-51 51v25.5h433.5v-25.5l-51-51V229.5zM267.75 522.75h10.2c17.85-2.55 30.6-15.3 35.7-30.6 2.55-5.101 5.1-12.75 5.1-20.4h-102c0 28.05 22.95 51 51 51z" fill="#d4b63d"/></svg><svg width="514" height="514" viewBox="-1 -1 512 512" x="1028" y="2056" xmlns="http://www.w3.org/2000/svg"><path d="M255 221.85c-28.05 0-51 22.95-51 51s22.95 51 51 51 51-22.95 51-51-22.95-51-51-51zm153 51c0-84.15-68.85-153-153-153s-153 68.85-153 153c0 56.1 30.6 104.55 76.5 132.6L204 362.1c-30.6-17.85-51-51-51-86.7 0-56.1 45.9-102 102-102s102 45.9 102 102c0 38.25-20.4 71.4-51 86.7l25.5 43.35c45.9-28.05 76.5-76.5 76.5-132.6zm-153-255c-140.25 0-255 114.75-255 255 0 94.35 51 175.95 127.5 219.3L153 448.8c-61.2-35.7-102-102-102-175.95 0-112.2 91.8-204 204-204s204 91.8 204 204c0 76.5-40.8 140.25-102 175.95l25.5 43.35C459 448.8 510 364.65 510 272.85c0-140.25-114.75-255-255-255z" fill="#d4b63d"/></svg><svg viewBox="-1 -1 457.73 457.73" width="457.73" height="457.73" x="2056" y="2056" xmlns="http://www.w3.org/2000/svg"><path fill="#dc472e" d="M0 0h455.731v455.731H0z"/><path d="M263.259 291.734c-.01-1.7-.51-3.47-1.14-5.06-.84-2.09-2.64-3.13-4.9-3.35-2.65-.26-4.77.81-6.69 2.51-.77.67-1.12 1.67-1.12 1.67l.04 53.97v1.33s.46.62.53.7c1.56 1.69 3.38 3.03 5.71 3.51 3.84.79 6.55-.81 7.3-4.37.19-.89.3-1.81.3-2.72.02-16.07.05-32.13-.03-48.19zm0 0c-.01-1.7-.51-3.47-1.14-5.06-.84-2.09-2.64-3.13-4.9-3.35-2.65-.26-4.77.81-6.69 2.51-.77.67-1.12 1.67-1.12 1.67l.04 53.97v1.33s.46.62.53.7c1.56 1.69 3.38 3.03 5.71 3.51 3.84.79 6.55-.81 7.3-4.37.19-.89.3-1.81.3-2.72.02-16.07.05-32.13-.03-48.19zm60.43-81.39a4468.85 4468.85 0 0 0-191.65 0c-22.16.47-39.88 18.59-39.88 40.76v99.76c0 22.18 17.72 40.3 39.88 40.77a4468.85 4468.85 0 0 0 191.65 0c22.17-.47 39.89-18.59 39.89-40.77v-99.76c0-22.169-17.72-40.29-39.89-40.76zm-172.89 149.611h-18.42v-104.13h-19.07v-17.42h56.6v17.38h-19.11v104.17zm65.92-43.221v43.23h-16.31v-9.88c-.59.63-.92.97-1.23 1.32-3.51 3.96-7.49 7.26-12.57 9.01-2.48.85-5.03 1.14-7.64.69-3.56-.59-5.95-2.64-7.39-5.88-1.34-2.99-1.68-6.19-1.69-9.41-.04-11.9-.02-74.88-.02-75.49h16.27c.03.55.09 45.76.1 67.81 0 1.2.01 2.43.25 3.6.6 2.96 2.87 4.23 5.72 3.19 3.28-1.2 5.78-3.46 7.88-6.17.31-.39.31-1.09.31-1.65v-66.88l16.32-.04v46.55zm62.05 34.59c-2.18 6.56-6.98 9.9-13.88 9.83-5.61-.05-10.16-2.28-13.91-6.35-.42-.45-1.58-1.68-1.58-1.68v6.82h-16.34v-121.55h16.34v40.01s.92-1.84 1.76-2.79c2.53-2.83 5.61-5.02 9.41-5.98 6.27-1.57 13.5.37 16.94 7.7 2.03 4.33 2.6 8.95 2.6 13.65.03 16.99.03 33.98.01 50.97-.01 3.18-.34 6.321-1.35 9.37zm60.35-3.419c-2.83 8.29-8.68 12.89-17.26 14.15-5.32.78-10.59.67-15.58-1.59-6.83-3.08-10.7-8.65-12.36-15.74-.77-3.3-1.15-6.76-1.19-10.15-.13-13.31-.07-26.63-.04-39.94.01-6.96 1.67-13.38 6.44-18.71 5.44-6.09 12.4-8.36 20.35-7.85 2.39.15 4.83.54 7.1 1.29 7.73 2.54 11.86 8.33 13.48 16.01.62 2.96.85 6.03.9 9.06.13 7.1-.05 22.75-.05 22.75h-31.29v22.43c0 4.03 3.26 7.29 7.29 7.29 4.02 0 7.28-3.26 7.28-7.29v-11.53h16.81c0-.001.25 13.61-1.88 19.82zm-14.93-57.22c0-4.02-3.26-7.29-7.28-7.29-4.03 0-7.29 3.27-7.29 7.29v12.59h14.57v-12.59zm-62.07-4.01c-.84-2.09-2.64-3.13-4.9-3.35-2.65-.26-4.77.81-6.69 2.51-.77.67-1.12 1.67-1.12 1.67l.04 53.97v1.33s.46.62.53.7c1.56 1.69 3.38 3.03 5.71 3.51 3.84.79 6.55-.81 7.3-4.37.19-.89.3-1.81.3-2.72.02-16.07.05-32.13-.03-48.19-.01-1.701-.51-3.471-1.14-5.06zM303.887 94.99l-.005 90.244H287.16l.02-9.695c-1.849 1.821-3.427 3.522-5.161 5.05-3.074 2.708-6.556 4.727-10.629 5.524-6.253 1.223-11.579-.754-13.573-7.23-.664-2.157-1.065-4.482-1.082-6.734V94.99h16.596v68.821c0 .912.073 1.834.233 2.728.504 2.836 2.6 4.171 5.331 3.224 3.329-1.152 5.869-3.457 8.024-6.173.306-.388.251-1.112.251-1.681V94.99h16.717zm-138.309 15.682c-3.63-15.301-11.235-47.602-11.235-47.602h-19.029s14.62 48.487 21.158 70.111c.235.782.343 1.631.343 2.45l-.007 49.584h17.547l-.007-49.584c0-.819.108-1.668.343-2.45 6.538-21.624 21.158-70.111 21.158-70.111H176.82s-7.606 32.301-11.235 47.602h-.007zm53.174-17.941c-13.224 0-23.944 10.72-23.944 23.944v46.859c0 13.224 10.72 23.944 23.944 23.944 13.224 0 23.944-10.72 23.944-23.944v-46.859c.001-13.224-10.72-23.944-23.944-23.944zm6.91 71.749c0 3.81-3.1 6.909-6.909 6.909s-6.909-3.099-6.909-6.909v-48.752c0-3.81 3.1-6.909 6.909-6.909s6.909 3.1 6.909 6.909v48.752z" fill="#fff"/></svg><svg width="514" height="514" viewBox="-1 -1 512 512" x="1542" y="2056" xmlns="http://www.w3.org/2000/svg"><path d="M459 61.2C443.7 56.1 349.35 51 255 51S66.3 56.1 51 61.2C10.2 73.95 0 163.2 0 255s10.2 181.05 51 193.8c15.3 5.1 109.65 10.2 204 10.2s188.7-5.1 204-10.2c40.8-12.75 51-102 51-193.8S499.8 73.95 459 61.2zM204 369.75v-229.5L357 255 204 369.75z" fill="#D80027"/></svg></svg>