<?xml version="1.0" encoding="UTF-8" standalone="no"?>
<!-- Generator: Adobe Illustrator 16.0.0, SVG Export Plug-In . SVG Version: 6.00 Build 0)  -->

<svg
   xmlns:dc="http://purl.org/dc/elements/1.1/"
   xmlns:cc="http://creativecommons.org/ns#"
   xmlns:rdf="http://www.w3.org/1999/02/22-rdf-syntax-ns#"
   xmlns:svg="http://www.w3.org/2000/svg"
   xmlns="http://www.w3.org/2000/svg"
   xmlns:sodipodi="http://sodipodi.sourceforge.net/DTD/sodipodi-0.dtd"
   xmlns:inkscape="http://www.inkscape.org/namespaces/inkscape"
   version="1.1"
   id="Capa_1"
   x="0px"
   y="0px"
   width="72.512314"
   height="72.260094"
   viewBox="0 0 72.229063 71.977828"
   xml:space="preserve"
   sodipodi:docname="gmail-logo-min.svg"
   inkscape:version="0.92.2 (5c3e80d, 2017-08-06)"><metadata
     id="metadata428"><rdf:RDF><cc:Work
         rdf:about=""><dc:format>image/svg+xml</dc:format><dc:type
           rdf:resource="http://purl.org/dc/dcmitype/StillImage" /></cc:Work></rdf:RDF></metadata><defs
     id="defs426" /><sodipodi:namedview
     pagecolor="#ffffff"
     bordercolor="#666666"
     borderopacity="1"
     objecttolerance="10"
     gridtolerance="10"
     guidetolerance="10"
     inkscape:pageopacity="0"
     inkscape:pageshadow="2"
     inkscape:window-width="1582"
     inkscape:window-height="883"
     id="namedview424"
     showgrid="false"
     inkscape:zoom="1.04"
     inkscape:cx="290.56495"
     inkscape:cy="-125.36517"
     inkscape:window-x="56"
     inkscape:window-y="38"
     inkscape:window-maximized="0"
     inkscape:current-layer="Capa_1"
     inkscape:snap-grids="false"
     inkscape:snap-to-guides="false" /><g
     id="g391"
     transform="matrix(0.98275862,0,0,0.95997537,8.165025,-33.256769)"><g
       id="gmail"
       transform="matrix(0.14411027,0,0,0.18377164,-8.3082711,25.271003)"><path
         d="M 459,51 H 51 C 22.95,51 0,73.95 0,102 v 306 c 0,28.05 22.95,51 51,51 h 408 c 28.05,0 51,-22.95 51,-51 V 102 C 510,73.95 487.05,51 459,51 Z m 0,357 H 408 V 183.6 L 255,280.5 102,183.6 V 408 H 51 V 102 H 81.6 L 255,209.1 428.4,102 H 459 Z"
         id="path388"
         inkscape:connector-curvature="0"
         style="fill:#d80027" /></g></g><g
     id="g393"
     transform="translate(-0.62807876,-51.628075)" /><g
     id="g395"
     transform="translate(-0.62807876,-51.628075)" /><g
     id="g397"
     transform="translate(-0.62807876,-51.628075)" /><g
     id="g399"
     transform="translate(-0.62807876,-51.628075)" /><g
     id="g401"
     transform="translate(-0.62807876,-51.628075)" /><g
     id="g403"
     transform="translate(-0.62807876,-51.628075)" /><g
     id="g405"
     transform="translate(-0.62807876,-51.628075)" /><g
     id="g407"
     transform="translate(-0.62807876,-51.628075)" /><g
     id="g409"
     transform="translate(-0.62807876,-51.628075)" /><g
     id="g411"
     transform="translate(-0.62807876,-51.628075)" /><g
     id="g413"
     transform="translate(-0.62807876,-51.628075)" /><g
     id="g415"
     transform="translate(-0.62807876,-51.628075)" /><g
     id="g417"
     transform="translate(-0.62807876,-51.628075)" /><g
     id="g419"
     transform="translate(-0.62807876,-51.628075)" /><g
     id="g421"
     transform="translate(-0.62807876,-51.628075)" /></svg>