<?xml version="1.0" encoding="UTF-8" standalone="no"?>
<!-- Generator: Adobe Illustrator 16.0.0, SVG Export Plug-In . SVG Version: 6.00 Build 0)  -->

<svg
   xmlns:dc="http://purl.org/dc/elements/1.1/"
   xmlns:cc="http://creativecommons.org/ns#"
   xmlns:rdf="http://www.w3.org/1999/02/22-rdf-syntax-ns#"
   xmlns:svg="http://www.w3.org/2000/svg"
   xmlns="http://www.w3.org/2000/svg"
   xmlns:sodipodi="http://sodipodi.sourceforge.net/DTD/sodipodi-0.dtd"
   xmlns:inkscape="http://www.inkscape.org/namespaces/inkscape"
   version="1.1"
   id="Capa_1"
   x="0px"
   y="0px"
   width="72"
   height="72"
   viewBox="0 0 71.71875 71.71875"
   xml:space="preserve"
   sodipodi:docname="google-plus-logo-min.svg"
   inkscape:version="0.92.2 (5c3e80d, 2017-08-06)"><metadata
     id="metadata31809"><rdf:RDF><cc:Work
         rdf:about=""><dc:format>image/svg+xml</dc:format><dc:type
           rdf:resource="http://purl.org/dc/dcmitype/StillImage" /><dc:title></dc:title></cc:Work></rdf:RDF></metadata><defs
     id="defs31807" /><sodipodi:namedview
     pagecolor="#ffffff"
     bordercolor="#666666"
     borderopacity="1"
     objecttolerance="10"
     gridtolerance="10"
     guidetolerance="10"
     inkscape:pageopacity="0"
     inkscape:pageshadow="2"
     inkscape:window-width="1225"
     inkscape:window-height="804"
     id="namedview31805"
     showgrid="false"
     inkscape:zoom="1"
     inkscape:cx="256"
     inkscape:cy="-176.17049"
     inkscape:window-x="0"
     inkscape:window-y="0"
     inkscape:window-maximized="0"
     inkscape:current-layer="Capa_1" /><g
     id="g31772"
     transform="scale(0.140625)"><g
       id="post-gplus"><path
         d="m 234.6,175.95 c 0,-25.5 -15.3,-76.5 -53.55,-76.5 -15.3,0 -33.15,10.2 -33.15,43.35 0,30.6 15.3,73.95 51,73.95 0,0 35.7,-2.55 35.7,-40.8 z M 219.3,300.9 c -2.55,0 -5.1,0 -7.65,0 v 0 c -7.65,0 -30.6,2.55 -45.9,7.649 -17.85,5.101 -38.25,17.851 -38.25,43.351 0,28.05 25.5,56.1 76.5,56.1 38.25,0 61.2,-25.5 61.2,-51 0,-17.85 -12.75,-30.6 -45.9,-56.1 z M 459,0 H 51 C 22.95,0 0,22.95 0,51 v 408 c 0,28.05 22.95,51 51,51 h 408 c 28.05,0 51,-22.95 51,-51 V 51 C 510,22.95 487.05,0 459,0 Z M 181.05,438.6 c -71.4,0 -104.55,-40.8 -104.55,-76.5 0,-12.75 2.55,-40.8 38.25,-61.199 20.4,-12.75 45.9,-20.4 79.05,-22.95 -5.1,-5.101 -7.65,-12.75 -7.65,-25.5 0,-5.1 0,-7.65 2.55,-12.75 h -10.2 c -51,0 -81.6,-38.25 -81.6,-76.5 0,-43.35 33.15,-91.8 104.55,-91.8 h 107.1 l -7.649,7.65 -17.851,17.849 -2.55,2.55 h -17.85 c 10.199,10.2 22.949,28.05 22.949,56.1 0,35.7 -17.85,53.55 -40.8,68.85 -5.1,2.55 -10.2,10.2 -10.2,17.85 0,7.65 5.1,12.75 10.2,15.3 2.55,2.55 7.65,5.101 12.75,7.65 20.4,15.3 48.45,33.149 48.45,73.95 C 306,385.05 272.85,438.6 181.05,438.6 Z M 433.5,255 h -51 v 51 H 357 v -51 h -51 v -25.5 h 51 v -51 h 25.5 v 51 h 51 z"
         id="path31769"
         inkscape:connector-curvature="0"
         style="fill:#d80027" /></g></g><g
     id="g31774" /><g
     id="g31776" /><g
     id="g31778" /><g
     id="g31780" /><g
     id="g31782" /><g
     id="g31784" /><g
     id="g31786" /><g
     id="g31788" /><g
     id="g31790" /><g
     id="g31792" /><g
     id="g31794" /><g
     id="g31796" /><g
     id="g31798" /><g
     id="g31800" /><g
     id="g31802" /></svg>