<?xml version="1.0" encoding="UTF-8" standalone="no"?>
<!-- Generator: Adobe Illustrator 16.0.0, SVG Export Plug-In . SVG Version: 6.00 Build 0)  -->

<svg
   xmlns:dc="http://purl.org/dc/elements/1.1/"
   xmlns:cc="http://creativecommons.org/ns#"
   xmlns:rdf="http://www.w3.org/1999/02/22-rdf-syntax-ns#"
   xmlns:svg="http://www.w3.org/2000/svg"
   xmlns="http://www.w3.org/2000/svg"
   xmlns:sodipodi="http://sodipodi.sourceforge.net/DTD/sodipodi-0.dtd"
   xmlns:inkscape="http://www.inkscape.org/namespaces/inkscape"
   version="1.1"
   id="Capa_1"
   x="0px"
   y="0px"
   width="72.776306"
   height="72.141586"
   viewBox="0 0 72.492024 71.859783"
   xml:space="preserve"
   sodipodi:docname="linkedin-logo-min.svg"
   inkscape:version="0.92.2 (5c3e80d, 2017-08-06)"><metadata
     id="metadata31901"><rdf:RDF><cc:Work
         rdf:about=""><dc:format>image/svg+xml</dc:format><dc:type
           rdf:resource="http://purl.org/dc/dcmitype/StillImage" /><dc:title></dc:title></cc:Work></rdf:RDF></metadata><defs
     id="defs31899" /><sodipodi:namedview
     pagecolor="#ffffff"
     bordercolor="#666666"
     borderopacity="1"
     objecttolerance="10"
     gridtolerance="10"
     guidetolerance="10"
     inkscape:pageopacity="0"
     inkscape:pageshadow="2"
     inkscape:window-width="1635"
     inkscape:window-height="987"
     id="namedview31897"
     showgrid="false"
     inkscape:zoom="1.575507"
     inkscape:cx="256"
     inkscape:cy="-84.237313"
     inkscape:window-x="74"
     inkscape:window-y="0"
     inkscape:window-maximized="0"
     inkscape:current-layer="Capa_1" /><g
     id="g31864"
     transform="scale(0.14214122,0.14090153)"><g
       id="post-linkedin"><path
         d="M 459,0 H 51 C 22.95,0 0,22.95 0,51 v 408 c 0,28.05 22.95,51 51,51 h 408 c 28.05,0 51,-22.95 51,-51 V 51 C 510,22.95 487.05,0 459,0 Z M 153,433.5 H 76.5 V 204 H 153 Z M 114.75,160.65 c -25.5,0 -45.9,-20.4 -45.9,-45.9 0,-25.5 20.4,-45.9 45.9,-45.9 25.5,0 45.9,20.4 45.9,45.9 0,25.5 -20.4,45.9 -45.9,45.9 z M 433.5,433.5 H 357 V 298.35 c 0,-20.399 -17.85,-38.25 -38.25,-38.25 -20.4,0 -38.25,17.851 -38.25,38.25 V 433.5 H 204 V 204 h 76.5 v 30.6 c 12.75,-20.4 40.8,-35.7 63.75,-35.7 48.45,0 89.25,40.8 89.25,89.25 z"
         id="path31861"
         inkscape:connector-curvature="0"
         style="fill:#245fa6" /></g></g><g
     id="g31866" /><g
     id="g31868" /><g
     id="g31870" /><g
     id="g31872" /><g
     id="g31874" /><g
     id="g31876" /><g
     id="g31878" /><g
     id="g31880" /><g
     id="g31882" /><g
     id="g31884" /><g
     id="g31886" /><g
     id="g31888" /><g
     id="g31890" /><g
     id="g31892" /><g
     id="g31894" /></svg>